<svg
	width="160"
	height="25"
	viewBox="0 0 160 25"
	fill="none"
	xmlns="http://www.w3.org/2000/svg"
>
	<g clip-path="url(#clip0_49_2032)">
		<path
			d="M9.4624 14.6237V23.2258C13.1127 23.2258 16.6135 21.7757 19.1946 19.1946C21.7758 16.6135 23.2258 13.1127 23.2258 9.46238V0.860229C19.5756 0.860229 16.0748 2.3103 13.4936 4.89145C10.9125 7.47259 9.4624 10.9734 9.4624 14.6237Z"
			fill="#0E9F6E"
		/>
		<path
			d="M0 8.60217V12.9032C0 15.641 1.08755 18.2666 3.02341 20.2024C4.95927 22.1383 7.58486 23.2258 10.3226 23.2258V18.9248C10.3226 16.187 9.23503 13.5614 7.29917 11.6256C5.36331 9.68973 2.73772 8.60217 0 8.60217Z"
			fill="#036672"
		/>
		<path
			d="M28.6241 23.1183V0.596292H43.8001V4.52224H33.3858V9.88881H43.0193V13.8148H33.3858V19.1923H43.844V23.1183H28.6241ZM46.3471 0.596292H52.2195L58.4219 15.7283H58.6858L64.8881 0.596292H70.7606V23.1183H66.1418V8.45919H65.9549L60.1264 23.0083H56.9813L51.1528 8.40421H50.9659V23.1183H46.3471V0.596292ZM78.2068 0.596292V23.1183H73.4451V0.596292H78.2068ZM80.8858 0.596292H86.7582L92.9606 15.7283H93.2245L99.4269 0.596292H105.299V23.1183H100.681V8.45919H100.494L94.6651 23.0083H91.52L85.6915 8.40421H85.5046V23.1183H80.8858V0.596292ZM120.202 7.07356C120.114 6.18647 119.736 5.49732 119.069 5.00612C118.402 4.51491 117.496 4.26931 116.353 4.26931C115.575 4.26931 114.919 4.37928 114.384 4.59922C113.849 4.81184 113.438 5.10876 113.152 5.48999C112.874 5.87122 112.735 6.30377 112.735 6.78764C112.72 7.19087 112.804 7.54277 112.987 7.84336C113.178 8.14395 113.438 8.40421 113.768 8.62415C114.098 8.83676 114.479 9.02371 114.912 9.185C115.344 9.33896 115.806 9.47093 116.298 9.5809L118.321 10.0648C119.303 10.2847 120.205 10.578 121.026 10.9445C121.847 11.3111 122.559 11.762 123.16 12.2972C123.761 12.8324 124.226 13.4629 124.556 14.1887C124.894 14.9145 125.066 15.7466 125.073 16.685C125.066 18.0633 124.714 19.2583 124.018 20.27C123.328 21.2744 122.331 22.0552 121.026 22.6124C119.729 23.1623 118.163 23.4372 116.331 23.4372C114.512 23.4372 112.929 23.1586 111.58 22.6014C110.238 22.0442 109.19 21.2195 108.435 20.1271C107.687 19.0274 107.295 17.6674 107.258 16.0472H111.866C111.917 16.8023 112.133 17.4328 112.515 17.9387C112.903 18.4372 113.42 18.8148 114.065 19.0714C114.718 19.3206 115.454 19.4453 116.276 19.4453C117.082 19.4453 117.782 19.328 118.376 19.0934C118.977 18.8588 119.443 18.5325 119.773 18.1146C120.103 17.6967 120.268 17.2165 120.268 16.674C120.268 16.1681 120.117 15.7429 119.817 15.3983C119.523 15.0538 119.091 14.7605 118.519 14.5186C117.954 14.2766 117.262 14.0567 116.441 13.8588L113.988 13.2429C112.089 12.781 110.59 12.0589 109.49 11.0765C108.391 10.0941 107.844 8.77078 107.852 7.10656C107.844 5.74292 108.207 4.55157 108.941 3.53251C109.681 2.51345 110.696 1.71799 111.987 1.14615C113.277 0.574298 114.743 0.288374 116.386 0.288374C118.057 0.288374 119.516 0.574298 120.762 1.14615C122.016 1.71799 122.991 2.51345 123.688 3.53251C124.384 4.55157 124.743 5.73192 124.765 7.07356H120.202Z"
			fill="#086F83"
		/>
		<path
			d="M129.603 7.21531C129.691 6.32821 130.068 5.63906 130.736 5.14786C131.403 4.65665 132.308 4.41105 133.452 4.41105C134.229 4.41105 134.885 4.52102 135.42 4.74097C135.955 4.95358 136.366 5.2505 136.652 5.63173C136.931 6.01296 137.07 6.44551 137.07 6.92938C137.084 7.33261 137 7.68451 136.817 7.9851C136.626 8.28569 136.366 8.54595 136.036 8.76589C135.706 8.9785 135.325 9.16545 134.892 9.32674C134.46 9.4807 133.998 9.61267 133.507 9.72264L131.483 10.2065C130.501 10.4264 129.599 10.7197 128.778 11.0863C127.957 11.4528 127.246 11.9037 126.645 12.4389C126.043 12.9741 125.578 13.6046 125.248 14.3304C124.911 15.0562 124.738 15.8883 124.731 16.8267C124.738 18.205 125.09 19.4001 125.787 20.4118C126.476 21.4162 127.473 22.197 128.778 22.7542C130.076 23.304 131.641 23.5789 133.474 23.5789C135.292 23.5789 137.693 23.5789 137.693 23.5789H141.134L141.112 19.2826H140.403H139.16H136.874C136.874 19.2826 135.188 19.2826 134.367 19.2826C133.561 19.2826 132.931 19.2906 132.08 19.2826C131.229 19.2746 130.309 18.667 130.032 18.2564C129.702 17.8385 129.537 17.3583 129.537 16.8157C129.537 16.3099 129.687 15.8847 129.988 15.5401C130.281 15.1955 130.714 14.9023 131.285 14.6603C131.85 14.4184 132.543 14.1984 133.364 14.0005L135.816 13.3847C137.715 12.9228 139.214 12.2006 140.314 11.2182C141.414 10.2358 141.96 8.91252 141.953 7.2483C141.96 5.88466 141.597 4.69331 140.864 3.67425C140.123 2.65519 139.108 1.85973 137.818 1.28789C136.527 0.716039 135.061 0.430115 133.419 0.430115C131.747 0.430115 130.288 0.716039 129.042 1.28789C127.788 1.85973 126.813 2.65519 126.117 3.67425C125.42 4.69331 125.061 5.87366 125.039 7.21531H129.603Z"
			fill="#0E9F6E"
		/>
		<path
			fill-rule="evenodd"
			clip-rule="evenodd"
			d="M124.963 18.4946H124.93C125.103 19.1937 125.388 19.8328 125.787 20.4118C126.476 21.4162 127.473 22.197 128.778 22.7542C130.076 23.304 131.641 23.5789 133.474 23.5789H141.134L141.112 19.2826H134.367C134.093 19.2826 133.84 19.2835 133.591 19.2844H133.591C133.107 19.2862 132.642 19.2879 132.08 19.2826C131.229 19.2746 130.309 18.667 130.032 18.2563C129.702 17.8385 129.537 17.3583 129.537 16.8157C129.537 16.3099 129.687 15.8846 129.988 15.5401C130.281 15.1955 130.714 14.9022 131.286 14.6603C131.673 14.4944 132.12 14.3388 132.628 14.1935L132.547 14.1935C132.122 14.3416 131.672 14.4734 131.197 14.589L128.745 15.2048C127.923 15.4027 127.231 15.6227 126.666 15.8646C126.094 16.1065 125.662 16.3998 125.368 16.7444C125.068 17.0889 124.918 17.5142 124.918 18.02C124.918 18.1839 124.933 18.3421 124.963 18.4946Z"
			fill="url(#paint0_linear_49_2032)"
		/>
		<path
			fill-rule="evenodd"
			clip-rule="evenodd"
			d="M124.93 18.4946H124.963C124.933 18.3421 124.918 18.1839 124.918 18.02C124.918 17.5142 125.068 17.0889 125.368 16.7444C125.662 16.3998 126.094 16.1065 126.666 15.8646C127.231 15.6227 127.923 15.4027 128.745 15.2048L131.197 14.5889C133.096 14.1271 134.595 13.4049 135.695 12.4225C136.794 11.4401 137.341 10.1168 137.333 8.45257C137.337 7.73831 137.239 7.07132 137.04 6.4516L137.021 6.4516C137.054 6.60487 137.07 6.76412 137.07 6.92936C137.085 7.33259 137 7.68449 136.817 7.98508C136.626 8.28567 136.366 8.54593 136.036 8.76587C135.706 8.97848 135.325 9.16543 134.892 9.32672C134.46 9.48068 133.998 9.61265 133.507 9.72262L131.483 10.2065C131.085 10.2956 130.701 10.3967 130.329 10.5099C130.311 10.517 130.292 10.524 130.273 10.531C130.09 10.5963 129.901 10.6576 129.707 10.7149C129.387 10.829 129.077 10.9528 128.778 11.0863C127.957 11.4528 127.246 11.9037 126.645 12.4389C126.044 12.9741 125.578 13.6046 125.248 14.3304C124.911 15.0562 124.739 15.8883 124.731 16.8267C124.734 17.4162 124.801 17.9722 124.93 18.4946Z"
			fill="url(#paint1_linear_49_2032)"
		/>
		<path
			d="M146.807 7.21531C146.895 6.32821 147.273 5.63906 147.94 5.14786C148.607 4.65665 149.512 4.41105 150.656 4.41105C151.433 4.41105 152.089 4.52102 152.625 4.74097C153.16 4.95358 153.57 5.2505 153.856 5.63173C154.135 6.01296 154.274 6.44551 154.274 6.92938C154.289 7.33261 154.205 7.68451 154.021 7.9851C153.831 8.28569 153.57 8.54595 153.24 8.76589C152.911 8.9785 152.529 9.16545 152.097 9.32674C151.664 9.4807 151.202 9.61267 150.711 9.72264L148.688 10.2065C147.705 10.4264 146.804 10.7197 145.982 11.0863C145.161 11.4528 144.45 11.9037 143.849 12.4389C143.248 12.9741 142.782 13.6046 142.452 14.3304C142.115 15.0562 141.943 15.8883 141.935 16.8267C141.943 18.205 142.295 19.4001 142.991 20.4118C143.68 21.4162 144.677 22.197 145.982 22.7542C147.28 23.304 148.845 23.5789 150.678 23.5789C152.496 23.5789 154.897 23.5789 154.897 23.5789H158.338L158.316 19.2826H157.608H156.364H154.079C154.079 19.2826 152.392 19.2826 151.571 19.2826C150.765 19.2826 150.135 19.2906 149.284 19.2826C148.433 19.2746 147.514 18.667 147.236 18.2564C146.906 17.8385 146.741 17.3583 146.741 16.8157C146.741 16.3099 146.891 15.8847 147.192 15.5401C147.485 15.1955 147.918 14.9023 148.49 14.6603C149.054 14.4184 149.747 14.1984 150.568 14.0005L153.021 13.3847C154.919 12.9228 156.419 12.2006 157.518 11.2182C158.618 10.2358 159.164 8.91252 159.157 7.2483C159.164 5.88466 158.801 4.69331 158.068 3.67425C157.328 2.65519 156.312 1.85973 155.022 1.28789C153.732 0.716039 152.265 0.430115 150.623 0.430115C148.952 0.430115 147.493 0.716039 146.246 1.28789C144.993 1.85973 144.018 2.65519 143.321 3.67425C142.625 4.69331 142.265 5.87366 142.243 7.21531H146.807Z"
			fill="#0E9F6E"
		/>
		<path
			fill-rule="evenodd"
			clip-rule="evenodd"
			d="M142.167 18.4946H142.134C142.307 19.1937 142.593 19.8328 142.991 20.4118C143.68 21.4162 144.677 22.197 145.982 22.7542C147.28 23.304 148.845 23.5789 150.678 23.5789H158.338L158.316 19.2826H151.571C151.298 19.2826 151.044 19.2835 150.795 19.2844H150.795C150.312 19.2862 149.846 19.2879 149.284 19.2826C148.433 19.2746 147.514 18.667 147.236 18.2563C146.906 17.8385 146.741 17.3583 146.741 16.8157C146.741 16.3099 146.891 15.8846 147.192 15.5401C147.485 15.1955 147.918 14.9022 148.49 14.6603C148.877 14.4944 149.324 14.3388 149.832 14.1935L149.751 14.1935C149.326 14.3416 148.876 14.4734 148.401 14.589L145.949 15.2048C145.128 15.4027 144.435 15.6227 143.87 15.8646C143.299 16.1065 142.866 16.3998 142.573 16.7444C142.272 17.0889 142.122 17.5142 142.122 18.02C142.122 18.1839 142.137 18.3421 142.167 18.4946Z"
			fill="url(#paint2_linear_49_2032)"
		/>
		<path
			fill-rule="evenodd"
			clip-rule="evenodd"
			d="M142.134 18.4946H142.167C142.137 18.3421 142.122 18.1839 142.122 18.02C142.122 17.5142 142.272 17.0889 142.573 16.7444C142.866 16.3998 143.298 16.1065 143.87 15.8646C144.435 15.6227 145.128 15.4027 145.949 15.2048L148.401 14.5889C150.3 14.1271 151.799 13.4049 152.899 12.4225C153.999 11.4401 154.545 10.1168 154.537 8.45257C154.541 7.73831 154.444 7.07132 154.244 6.4516L154.225 6.4516C154.258 6.60487 154.274 6.76412 154.274 6.92936C154.289 7.33259 154.204 7.68449 154.021 7.98508C153.831 8.28567 153.57 8.54593 153.24 8.76587C152.91 8.97848 152.529 9.16543 152.097 9.32672C151.664 9.48068 151.202 9.61265 150.711 9.72262L148.688 10.2065C148.29 10.2956 147.905 10.3967 147.533 10.5099C147.515 10.517 147.496 10.524 147.477 10.531C147.294 10.5963 147.105 10.6576 146.911 10.7149C146.591 10.829 146.281 10.9528 145.982 11.0863C145.161 11.4528 144.45 11.9037 143.849 12.4389C143.248 12.9741 142.782 13.6046 142.452 14.3304C142.115 15.0562 141.943 15.8883 141.935 16.8267C141.939 17.4162 142.005 17.9722 142.134 18.4946Z"
			fill="url(#paint3_linear_49_2032)"
		/>
	</g>
	<defs>
		<linearGradient
			id="paint0_linear_49_2032"
			x1="126.882"
			y1="15.0538"
			x2="131.613"
			y2="20.6452"
			gradientUnits="userSpaceOnUse"
		>
			<stop stop-color="#146D4F" />
			<stop offset="1" stop-color="#0E9F6E" stop-opacity="0" />
		</linearGradient>
		<linearGradient
			id="paint1_linear_49_2032"
			x1="137.634"
			y1="9.89246"
			x2="126.022"
			y2="15.914"
			gradientUnits="userSpaceOnUse"
		>
			<stop stop-color="#17654B" />
			<stop
				offset="0.483697"
				stop-color="#50C79F"
				stop-opacity="0.516303"
			/>
			<stop offset="1" stop-color="#1C8561" stop-opacity="0" />
		</linearGradient>
		<linearGradient
			id="paint2_linear_49_2032"
			x1="144.086"
			y1="15.0538"
			x2="148.817"
			y2="20.6452"
			gradientUnits="userSpaceOnUse"
		>
			<stop stop-color="#146D4F" />
			<stop offset="1" stop-color="#0E9F6E" stop-opacity="0" />
		</linearGradient>
		<linearGradient
			id="paint3_linear_49_2032"
			x1="154.839"
			y1="9.89246"
			x2="143.226"
			y2="15.914"
			gradientUnits="userSpaceOnUse"
		>
			<stop stop-color="#17654B" />
			<stop
				offset="0.483697"
				stop-color="#50C79F"
				stop-opacity="0.516303"
			/>
			<stop offset="1" stop-color="#1C8561" stop-opacity="0" />
		</linearGradient>
		<clipPath id="clip0_49_2032">
			<rect width="160" height="24.086" fill="white" />
		</clipPath>
	</defs>
</svg>